<svg width="14" height="14" viewBox="0 0 14 14" fill="none" xmlns="http://www.w3.org/2000/svg">
<path d="M2 0C0.896875 0 0 0.896875 0 2V12C0 13.1031 0.896875 14 2 14H12C13.1031 14 14 13.1031 14 12V2C14 0.896875 13.1031 0 12 0H2ZM6.25 9.75V7.75H4.25C3.83437 7.75 3.5 7.41563 3.5 7C3.5 6.58437 3.83437 6.25 4.25 6.25H6.25V4.25C6.25 3.83437 6.58437 3.5 7 3.5C7.41563 3.5 7.75 3.83437 7.75 4.25V6.25H9.75C10.1656 6.25 10.5 6.58437 10.5 7C10.5 7.41563 10.1656 7.75 9.75 7.75H7.75V9.75C7.75 10.1656 7.41563 10.5 7 10.5C6.58437 10.5 6.25 10.1656 6.25 9.75Z" fill="black"/>
</svg>
