<svg width="17" height="16" viewBox="0 0 17 16" fill="none" xmlns="http://www.w3.org/2000/svg">
<path id="Vector" d="M9.60312 11.4729C10.4562 11.351 11.225 10.8666 11.7031 10.1322L16.7563 2.31662C17.15 1.70724 17.05 0.900991 16.5187 0.404116C15.9875 -0.0927591 15.1781 -0.136509 14.5969 0.300991L7.2 5.85099C6.45 6.41349 6.00625 7.29162 6 8.22912L9.60312 11.4729ZM8.99063 12.2666L5.36562 9.00412C3.49687 9.07287 2 10.6135 2 12.501C2 12.6229 2.00625 12.7447 2.01875 12.8635C2.075 13.4104 1.7 14.001 1.15 14.001H1C0.446875 14.001 0 14.4479 0 15.001C0 15.5541 0.446875 16.001 1 16.001H5.5C7.43437 16.001 9 14.4354 9 12.501C9 12.4229 8.99687 12.3447 8.99375 12.2666H8.99063Z" fill="#51A9C5"/>
</svg>
