<svg width="24" height="24" viewBox="0 0 24 24" fill="none" xmlns="http://www.w3.org/2000/svg">
<path id="Vector" d="M12 2.99002C12.6296 2.99002 13.14 2.49305 13.14 1.88002C13.14 1.26699 12.6296 0.77002 12 0.77002V2.99002ZM23.78 12.24C23.78 11.627 23.2696 11.13 22.64 11.13C22.0104 11.13 21.5 11.627 21.5 12.24H23.78ZM22.64 2.99002C23.2696 2.99002 23.78 2.49305 23.78 1.88002C23.78 1.26699 23.2696 0.77002 22.64 0.77002V2.99002ZM16.4262 0.77002C15.7966 0.77002 15.2862 1.26699 15.2862 1.88002C15.2862 2.49305 15.7966 2.99002 16.4262 2.99002V0.77002ZM23.78 1.88002C23.78 1.26699 23.2696 0.77002 22.64 0.77002C22.0104 0.77002 21.5 1.26699 21.5 1.88002H23.78ZM21.5 8.0087C21.5 8.62172 22.0104 9.1187 22.64 9.1187C23.2696 9.1187 23.78 8.62172 23.78 8.0087H21.5ZM23.446 2.66491C23.8912 2.23143 23.8912 1.52861 23.446 1.09513C23.0008 0.661654 22.2791 0.661654 21.8339 1.09513L23.446 2.66491ZM11.1939 11.4552C10.7487 11.8887 10.7487 12.5914 11.1939 13.0249C11.6391 13.4584 12.3608 13.4584 12.806 13.0249L11.1939 11.4552ZM12 0.77002H7.43997V2.99002H12V0.77002ZM7.43997 0.77002C3.45248 0.77002 0.219971 3.91746 0.219971 7.80002H2.49997C2.49997 5.14352 4.71168 2.99002 7.43997 2.99002V0.77002ZM0.219971 7.80002V16.68H2.49997V7.80002H0.219971ZM0.219971 16.68C0.219971 20.5627 3.45248 23.71 7.43997 23.71V21.49C4.71168 21.49 2.49997 19.3365 2.49997 16.68H0.219971ZM7.43997 23.71H16.56V21.49H7.43997V23.71ZM16.56 23.71C20.5475 23.71 23.78 20.5627 23.78 16.68H21.5C21.5 19.3365 19.2882 21.49 16.56 21.49V23.71ZM23.78 16.68V12.24H21.5V16.68H23.78ZM22.64 0.77002H16.4262V2.99002H22.64V0.77002ZM21.5 1.88002V8.0087H23.78V1.88002H21.5ZM21.8339 1.09513L11.1939 11.4552L12.806 13.0249L23.446 2.66491L21.8339 1.09513Z" fill="#E8D8B0"/>
</svg>
