<svg width="30" height="30" viewBox="0 0 30 30" fill="none" xmlns="http://www.w3.org/2000/svg">
<path fill-rule="evenodd" clip-rule="evenodd" d="M14.7407 23.2379C19.0829 23.2379 22.603 19.7178 22.603 15.3756C22.603 11.0334 19.0829 7.51331 14.7407 7.51331C10.3985 7.51331 6.87842 11.0334 6.87842 15.3756C6.87842 19.7178 10.3985 23.2379 14.7407 23.2379ZM14.7407 20.6171C17.6355 20.6171 19.9823 18.2704 19.9823 15.3756C19.9823 12.4808 17.6355 10.1341 14.7407 10.1341C11.8459 10.1341 9.49919 12.4808 9.49919 15.3756C9.49919 18.2704 11.8459 20.6171 14.7407 20.6171Z" fill="url(#paint0_linear_192_623)"/>
<path d="M22.6029 6.20312C21.8791 6.20312 21.2925 6.78981 21.2925 7.51351C21.2925 8.23721 21.8791 8.82389 22.6029 8.82389C23.3266 8.82389 23.9132 8.23721 23.9132 7.51351C23.9132 6.78981 23.3266 6.20312 22.6029 6.20312Z" fill="url(#paint1_linear_192_623)"/>
<path fill-rule="evenodd" clip-rule="evenodd" d="M1.1836 5.2542C0.32666 6.93604 0.32666 9.13769 0.32666 13.541V17.2101C0.32666 21.6133 0.32666 23.8151 1.1836 25.4968C1.93738 26.9762 3.14016 28.179 4.61956 28.9328C6.30139 29.7897 8.50305 29.7897 12.9063 29.7897H16.5754C20.9787 29.7897 23.1804 29.7897 24.8622 28.9328C26.3416 28.179 27.5444 26.9762 28.2981 25.4968C29.1551 23.8151 29.1551 21.6133 29.1551 17.2101V13.541C29.1551 9.13769 29.1551 6.93604 28.2981 5.2542C27.5444 3.7748 26.3416 2.57203 24.8622 1.81824C23.1804 0.961304 20.9787 0.961304 16.5754 0.961304H12.9063C8.50305 0.961304 6.30139 0.961304 4.61956 1.81824C3.14016 2.57203 1.93738 3.7748 1.1836 5.2542ZM16.5754 3.58207H12.9063C10.6614 3.58207 9.13539 3.58412 7.95582 3.68048C6.80682 3.77436 6.21925 3.94451 5.80936 4.15336C4.8231 4.65589 4.02125 5.45774 3.51872 6.444C3.30987 6.85389 3.13971 7.44147 3.04584 8.59046C2.94947 9.77003 2.94743 11.2961 2.94743 13.541V17.2101C2.94743 19.455 2.94947 20.981 3.04584 22.1606C3.13971 23.3096 3.30987 23.8972 3.51872 24.3071C4.02125 25.2933 4.8231 26.0951 5.80936 26.5977C6.21925 26.8065 6.80682 26.9767 7.95582 27.0706C9.13539 27.1669 10.6614 27.169 12.9063 27.169H16.5754C18.8204 27.169 20.3463 27.1669 21.5259 27.0706C22.675 26.9767 23.2626 26.8065 23.6725 26.5977C24.6587 26.0951 25.4605 25.2933 25.963 24.3071C26.1719 23.8972 26.3421 23.3096 26.4359 22.1606C26.5322 20.981 26.5343 19.455 26.5343 17.2101V13.541C26.5343 11.2961 26.5322 9.77003 26.4359 8.59046C26.3421 7.44147 26.1719 6.85389 25.963 6.444C25.4605 5.45774 24.6587 4.65589 23.6725 4.15336C23.2626 3.94451 22.675 3.77436 21.5259 3.68048C20.3463 3.58412 18.8204 3.58207 16.5754 3.58207Z" fill="url(#paint2_linear_192_623)"/>
<defs>
<linearGradient id="paint0_linear_192_623" x1="14.7407" y1="7.51331" x2="14.7407" y2="23.2379" gradientUnits="userSpaceOnUse">
<stop stop-color="#E8D8B0"/>
<stop offset="1" stop-color="#E8D8B0" stop-opacity="0.72"/>
</linearGradient>
<linearGradient id="paint1_linear_192_623" x1="22.6029" y1="6.20312" x2="22.6029" y2="8.82389" gradientUnits="userSpaceOnUse">
<stop stop-color="#E8D8B0"/>
<stop offset="1" stop-color="#E8D8B0" stop-opacity="0.72"/>
</linearGradient>
<linearGradient id="paint2_linear_192_623" x1="14.7409" y1="0.961304" x2="14.7409" y2="29.7897" gradientUnits="userSpaceOnUse">
<stop stop-color="#E8D8B0"/>
<stop offset="1" stop-color="#E8D8B0" stop-opacity="0.72"/>
</linearGradient>
</defs>
</svg>
