<svg width="30" height="29" viewBox="0 0 30 29" fill="none" xmlns="http://www.w3.org/2000/svg">
<path fill-rule="evenodd" clip-rule="evenodd" d="M25.4385 0.118774C27.586 0.118774 29.3267 1.85959 29.3267 4.00698V24.744C29.3267 26.8915 27.586 28.6322 25.4385 28.6322H4.70143C2.55404 28.6322 0.813232 26.8915 0.813232 24.744V4.00698C0.813232 1.85959 2.55404 0.118774 4.70143 0.118774H25.4385ZM25.4385 2.71091C26.1543 2.71091 26.7346 3.29118 26.7346 4.00698V24.744C26.7346 25.4599 26.1543 26.0401 25.4385 26.0401H18.9582V16.9675H21.6491C22.2069 16.9675 22.7021 16.6106 22.8786 16.0813L23.4528 14.3588C23.6626 13.7293 23.1941 13.0793 22.5306 13.0793H18.9582V10.4872C18.9582 9.83917 19.6062 9.19114 20.2542 9.19114H22.8464C23.5622 9.19114 24.1424 8.61086 24.1424 7.89507V7.00598C24.1424 6.58733 23.8751 6.21197 23.4702 6.10514C21.7713 5.6568 20.2542 5.6568 20.2542 5.6568C17.0141 5.6568 15.07 7.89507 15.07 9.83917V13.0793H12.4778C11.762 13.0793 11.1818 13.6596 11.1818 14.3754V15.6714C11.1818 16.3873 11.762 16.9675 12.4778 16.9675H15.07V26.0401H4.70143C3.98564 26.0401 3.40537 25.4599 3.40537 24.744V4.00698C3.40537 3.29118 3.98564 2.71091 4.70143 2.71091H25.4385Z" fill="url(#paint0_linear_192_622)"/>
<defs>
<linearGradient id="paint0_linear_192_622" x1="15.07" y1="0.118774" x2="15.07" y2="28.6322" gradientUnits="userSpaceOnUse">
<stop stop-color="#E8D8B0"/>
<stop offset="1" stop-color="#E8D8B0" stop-opacity="0.72"/>
</linearGradient>
</defs>
</svg>
