<svg width="38" height="29" viewBox="0 0 38 29" fill="none" xmlns="http://www.w3.org/2000/svg">
<path d="M35.5806 24.2681C34.9061 25.7845 33.166 27.1579 31.532 27.4612C31.3648 27.4923 27.3715 28.213 18.6158 28.213H18.5927C9.83812 28.213 5.84137 27.4923 5.67532 27.4623C4.04133 27.1579 2.3001 25.7845 1.62436 24.267C1.5644 24.1321 0.155273 20.8872 0.155273 14.3754C0.155273 7.86369 1.5644 4.61762 1.62436 4.48271C2.3001 2.96518 4.04133 1.59296 5.67532 1.28968C5.84137 1.25855 9.83812 0.537842 18.5927 0.537842C27.3715 0.537842 31.3648 1.25855 31.5308 1.28853C33.166 1.59296 34.9061 2.96518 35.5818 4.48155C35.6418 4.61762 37.0543 7.86369 37.0543 14.3754C37.0543 20.8872 35.6418 24.1321 35.5806 24.2681ZM33.4716 5.41559C33.1118 4.60724 31.984 3.71933 31.11 3.55674C31.0731 3.54982 27.1213 2.84411 18.6158 2.84411C10.0884 2.84411 6.13311 3.54982 6.09506 3.55674C5.22098 3.71933 4.09437 4.60724 3.73344 5.4202C3.72191 5.44442 2.46269 8.41258 2.46269 14.3754C2.46269 20.3371 3.72191 23.3053 3.73575 23.3353C4.09437 24.1436 5.22098 25.0315 6.09621 25.1941C6.13311 25.201 10.0884 25.9067 18.5927 25.9067H18.6158C27.1213 25.9067 31.0731 25.201 31.1111 25.1941C31.9852 25.0315 33.1118 24.1436 33.4727 23.3307C33.4842 23.3053 34.7458 20.3371 34.7458 14.3754C34.7458 8.41373 33.4842 5.44442 33.4716 5.41559ZM15.7687 21.1166C15.5819 21.2354 15.3674 21.2942 15.1541 21.2942C14.9626 21.2942 14.7712 21.2469 14.5971 21.1501C14.2292 20.9471 14.0009 20.5608 14.0009 20.1411V8.60977C14.0009 8.19118 14.2269 7.80603 14.5925 7.60308C14.958 7.39898 15.4066 7.4082 15.7606 7.62845L25.0076 13.3434C25.3454 13.5521 25.553 13.9211 25.5542 14.3189C25.5553 14.7168 25.3524 15.0881 25.0156 15.2991L15.7687 21.1166ZM16.3083 10.6785V18.0528L22.2216 14.3328L16.3083 10.6785Z" fill="url(#paint0_linear_193_642)"/>
<defs>
<linearGradient id="paint0_linear_193_642" x1="18.6048" y1="0.537842" x2="18.6048" y2="28.213" gradientUnits="userSpaceOnUse">
<stop stop-color="#E8D8B0"/>
<stop offset="1" stop-color="#E8D8B0" stop-opacity="0.72"/>
</linearGradient>
</defs>
</svg>
