<svg width="33" height="28" viewBox="0 0 33 28" fill="none" xmlns="http://www.w3.org/2000/svg">
<path fill-rule="evenodd" clip-rule="evenodd" d="M28.1531 2.75112C28.6579 2.63236 29.0099 2.5156 29.2983 2.39298C29.7024 2.22111 30.0375 2.01522 30.5669 1.66848C31.0118 1.37707 31.5819 1.35169 32.0512 1.6024C32.5206 1.85312 32.8133 2.33942 32.8133 2.86845C32.8133 4.42255 32.6182 5.69631 32.1665 6.81728C31.7864 7.76016 31.2525 8.52599 30.6138 9.22303C30.3441 14.0583 28.934 17.8556 26.7781 20.7323C24.5436 23.7141 21.5706 25.6236 18.4367 26.6929C15.3119 27.759 12.0103 27.9973 9.05247 27.6362C6.11405 27.2777 3.39786 26.3121 1.50463 24.8506C0.986171 24.4504 0.80392 23.7539 1.0606 23.1538C1.31728 22.5537 1.94862 22.2001 2.59885 22.2924C4.46162 22.5566 6.25476 22.1362 7.72923 21.5352C7.43897 21.3785 7.1653 21.2088 6.91092 21.034C5.56735 20.1108 4.48334 18.8575 3.99543 17.8889C3.79351 17.4882 3.79143 17.0168 3.98979 16.6144C4.09212 16.4066 4.24175 16.2296 4.42343 16.0946C2.46171 14.4876 1.66968 12.265 1.66968 10.776C1.66968 10.3333 1.8752 9.91526 2.22679 9.6428C2.37463 9.52824 2.54135 9.44478 2.7171 9.39452C2.57031 8.96788 2.4564 8.53683 2.36957 8.11953C1.98459 6.26935 2.01876 4.18108 2.4372 2.51976C2.58039 1.95124 3.05687 1.52589 3.64158 1.4446C4.22627 1.36332 4.80216 1.64239 5.0972 2.14998C6.65802 4.83523 9.53695 6.47657 12.2163 7.44885C13.476 7.90596 14.6427 8.19725 15.5172 8.37634C15.7059 6.62144 16.1996 5.17422 16.9573 4.02476C17.9569 2.50824 19.3512 1.61099 20.8484 1.21091C23.4307 0.520932 26.296 1.307 28.1531 2.75112ZM15.0664 11.2197C14.074 11.0219 12.71 10.6896 11.2215 10.1495C9.25555 9.43611 6.97263 8.32372 5.06032 6.60062C5.09455 6.9177 5.14313 7.23209 5.20678 7.53796C5.52727 9.07826 6.1228 9.94091 6.66312 10.209C7.32395 10.537 7.6302 11.3061 7.37386 11.9939C7.02679 12.9251 6.11395 13.0014 5.28454 12.7957C5.95162 13.7883 7.15064 14.7781 9.15052 15.1089C9.84029 15.2231 10.3495 15.8099 10.3607 16.5039C10.372 17.1979 9.88218 17.8008 9.19647 17.9369L7.93557 18.1872C8.12846 18.3536 8.33732 18.5168 8.55997 18.6698C9.56948 19.3635 10.5831 19.6627 11.4581 19.4456C12.1135 19.283 12.7952 19.5915 13.101 20.1894C13.4069 20.7873 13.2558 21.5156 12.7368 21.9448C11.8041 22.7154 10.7147 23.3338 9.623 23.8469C9.11048 24.0879 8.53772 24.3257 7.91565 24.535C8.39408 24.6364 8.89191 24.7195 9.40603 24.7823C11.9708 25.0953 14.8255 24.8843 17.4949 23.9736C20.1551 23.0659 22.614 21.4709 24.4536 19.0163C26.2905 16.5649 27.5725 13.1725 27.7444 8.56631C27.7579 8.20365 27.9091 7.85948 28.1677 7.60287C28.819 6.95639 29.3572 6.21539 29.622 5.33338C29.1586 5.47677 28.6369 5.60087 28.0155 5.7188C27.544 5.80825 27.0585 5.66012 26.7192 5.32327C25.6117 4.22407 23.4216 3.50123 21.6015 3.98754C20.7449 4.21641 19.9664 4.71189 19.3816 5.59902C18.7846 6.50477 18.3279 7.91578 18.3279 10.0572C18.3279 10.4641 18.1542 10.8519 17.85 11.1245C17.1287 11.7707 15.9146 11.3888 15.0664 11.2197Z" fill="url(#paint0_linear_192_621)"/>
<defs>
<linearGradient id="paint0_linear_192_621" x1="16.8793" y1="0.957397" x2="16.8793" y2="27.7936" gradientUnits="userSpaceOnUse">
<stop stop-color="#E8D8B0"/>
<stop offset="1" stop-color="#E8D8B0" stop-opacity="0.72"/>
</linearGradient>
</defs>
</svg>
