<svg width="17" height="18" viewBox="0 0 17 18" fill="none" xmlns="http://www.w3.org/2000/svg">
<path id="Vector" fill-rule="evenodd" clip-rule="evenodd" d="M14.6818 0.253265C15.9621 0.253265 17 1.29115 17 2.57145V14.9351C17 16.2154 15.9621 17.2533 14.6818 17.2533H2.31818C1.03789 17.2533 0 16.2154 0 14.9351V2.57145C0 1.29115 1.03789 0.253265 2.31818 0.253265H14.6818ZM14.6818 1.79872C15.1086 1.79872 15.4545 2.14469 15.4545 2.57145V14.9351C15.4545 15.3619 15.1086 15.7078 14.6818 15.7078H10.8182V10.2986H12.4225C12.7551 10.2986 13.0504 10.0858 13.1556 9.77025L13.4979 8.7433C13.623 8.36798 13.3437 7.98046 12.9481 7.98046H10.8182V6.43502C10.8182 6.04866 11.2045 5.66229 11.5909 5.66229H13.1364C13.5631 5.66229 13.9091 5.31633 13.9091 4.88957V4.35948C13.9091 4.10988 13.7497 3.88609 13.5083 3.82239C12.4954 3.55509 11.5909 3.55509 11.5909 3.55509C9.65909 3.55509 8.5 4.88957 8.5 6.04866V7.98046H6.95455C6.52778 7.98046 6.18182 8.32641 6.18182 8.75319V9.52592C6.18182 9.95269 6.52778 10.2986 6.95455 10.2986H8.5V15.7078H2.31818C1.89142 15.7078 1.54545 15.3619 1.54545 14.9351V2.57145C1.54545 2.14469 1.89142 1.79872 2.31818 1.79872H14.6818Z" fill="url(#paint0_linear_80_36)"/>
<defs>
<linearGradient id="paint0_linear_80_36" x1="8.5" y1="0.253265" x2="8.5" y2="17.2533" gradientUnits="userSpaceOnUse">
<stop stop-color="#E8D8B0"/>
<stop offset="1" stop-color="#E8D8B0" stop-opacity="0.72"/>
</linearGradient>
</defs>
</svg>
