<svg width="17" height="17" viewBox="0 0 17 17" fill="none" xmlns="http://www.w3.org/2000/svg">
<path d="M15.5244 2.94203C15.5244 2.43363 15.5241 2.17924 15.4251 1.98506C15.3381 1.81425 15.1997 1.67548 15.029 1.58844C14.8348 1.4895 14.5801 1.4895 14.0716 1.4895H2.45209C1.94369 1.4895 1.68974 1.4895 1.49555 1.58844C1.32475 1.67548 1.18598 1.81425 1.09894 1.98506C1 2.17924 1 2.43363 1 2.94203V3.6113C1 3.83333 1 3.94443 1.02508 4.0489C1.04732 4.14153 1.08409 4.23001 1.13386 4.31123C1.18998 4.40281 1.26862 4.48145 1.42552 4.63835L6.02135 9.23419C6.17834 9.39115 6.25642 9.46922 6.31256 9.5609C6.36233 9.64206 6.3996 9.73084 6.42184 9.82352C6.44666 9.92692 6.44666 10.0367 6.44666 10.2543V14.5715C6.44666 15.3496 6.44666 15.739 6.61051 15.9732C6.75367 16.1779 6.97444 16.3144 7.22144 16.3509C7.50431 16.3926 7.85253 16.2188 8.54852 15.8709L9.27474 15.5077C9.56623 15.362 9.71156 15.2889 9.81804 15.1801C9.91218 15.084 9.98426 14.9686 10.0281 14.8414C10.0778 14.6976 10.0778 14.5342 10.0778 14.2083V10.261C10.0778 10.0389 10.0778 9.92801 10.1028 9.82352C10.1251 9.73084 10.1618 9.64206 10.2117 9.5609C10.2674 9.46985 10.3453 9.39196 10.5001 9.2371L10.5033 9.23419L15.0991 4.63835C15.2561 4.48135 15.3341 4.40285 15.3903 4.31123C15.4401 4.23001 15.4774 4.14153 15.4996 4.0489C15.5244 3.9455 15.5244 3.83559 15.5244 3.61805V2.94203Z" stroke="#E8D8B0" stroke-linecap="round" stroke-linejoin="round"/>
</svg>
