<svg width="18" height="18" viewBox="0 0 18 18" fill="none" xmlns="http://www.w3.org/2000/svg">
<g id="INSTA">
<path id="Vector" fill-rule="evenodd" clip-rule="evenodd" d="M8.59385 13.5348C11.1827 13.5348 13.2814 11.4361 13.2814 8.84725C13.2814 6.25837 11.1827 4.15967 8.59385 4.15967C6.00497 4.15967 3.90627 6.25837 3.90627 8.84725C3.90627 11.4361 6.00497 13.5348 8.59385 13.5348ZM8.59385 11.9723C10.3197 11.9723 11.7189 10.5731 11.7189 8.84725C11.7189 7.12133 10.3197 5.72219 8.59385 5.72219C6.86793 5.72219 5.4688 7.12133 5.4688 8.84725C5.4688 10.5731 6.86793 11.9723 8.59385 11.9723Z" fill="url(#paint0_linear_80_37)"/>
<path id="Vector_2" d="M13.2812 3.37849C12.8498 3.37849 12.5 3.72828 12.5 4.15976C12.5 4.59123 12.8498 4.94102 13.2812 4.94102C13.7127 4.94102 14.0625 4.59123 14.0625 4.15976C14.0625 3.72828 13.7127 3.37849 13.2812 3.37849Z" fill="url(#paint1_linear_80_37)"/>
<path id="Vector_3" fill-rule="evenodd" clip-rule="evenodd" d="M0.510915 2.81273C0 3.81546 0 5.12811 0 7.75339V9.94093C0 12.5662 0 13.8789 0.510915 14.8816C0.960329 15.7636 1.67743 16.4807 2.55946 16.9301C3.56219 17.4411 4.87484 17.4411 7.50013 17.4411H9.68766C12.3129 17.4411 13.6256 17.4411 14.6283 16.9301C15.5103 16.4807 16.2275 15.7636 16.6768 14.8816C17.1878 13.8789 17.1878 12.5662 17.1878 9.94093V7.75339C17.1878 5.12811 17.1878 3.81546 16.6768 2.81273C16.2275 1.9307 15.5103 1.21359 14.6283 0.76418C13.6256 0.253265 12.3129 0.253265 9.68766 0.253265H7.50013C4.87484 0.253265 3.56219 0.253265 2.55946 0.76418C1.67743 1.21359 0.960329 1.9307 0.510915 2.81273ZM9.68766 1.81579H7.50013C6.1617 1.81579 5.25185 1.81701 4.54858 1.87446C3.86353 1.93043 3.51322 2.03188 3.26884 2.1564C2.68082 2.45601 2.20275 2.93408 1.90313 3.5221C1.77862 3.76648 1.67717 4.1168 1.6212 4.80184C1.56374 5.50511 1.56253 6.41496 1.56253 7.75339V9.94093C1.56253 11.2794 1.56374 12.1892 1.6212 12.8925C1.67717 13.5776 1.77862 13.9279 1.90313 14.1722C2.20275 14.7602 2.68082 15.2383 3.26884 15.5379C3.51322 15.6624 3.86353 15.7639 4.54858 15.8199C5.25185 15.8773 6.1617 15.8785 7.50013 15.8785H9.68766C11.0261 15.8785 11.9359 15.8773 12.6392 15.8199C13.3243 15.7639 13.6746 15.6624 13.919 15.5379C14.507 15.2383 14.985 14.7602 15.2846 14.1722C15.4092 13.9279 15.5106 13.5776 15.5666 12.8925C15.624 12.1892 15.6253 11.2794 15.6253 9.94093V7.75339C15.6253 6.41496 15.624 5.50511 15.5666 4.80184C15.5106 4.1168 15.4092 3.76648 15.2846 3.5221C14.985 2.93408 14.507 2.45601 13.919 2.1564C13.6746 2.03188 13.3243 1.93043 12.6392 1.87446C11.9359 1.81701 11.0261 1.81579 9.68766 1.81579Z" fill="url(#paint2_linear_80_37)"/>
</g>
<defs>
<linearGradient id="paint0_linear_80_37" x1="8.59385" y1="4.15967" x2="8.59385" y2="13.5348" gradientUnits="userSpaceOnUse">
<stop stop-color="#E8D8B0"/>
<stop offset="1" stop-color="#E8D8B0" stop-opacity="0.72"/>
</linearGradient>
<linearGradient id="paint1_linear_80_37" x1="13.2812" y1="3.37849" x2="13.2812" y2="4.94102" gradientUnits="userSpaceOnUse">
<stop stop-color="#E8D8B0"/>
<stop offset="1" stop-color="#E8D8B0" stop-opacity="0.72"/>
</linearGradient>
<linearGradient id="paint2_linear_80_37" x1="8.59389" y1="0.253265" x2="8.59389" y2="17.4411" gradientUnits="userSpaceOnUse">
<stop stop-color="#E8D8B0"/>
<stop offset="1" stop-color="#E8D8B0" stop-opacity="0.72"/>
</linearGradient>
</defs>
</svg>
