<!-- icon666.com - MILLIONS vector ICONS FREE --><svg viewBox="0 0 32 32" xmlns="http://www.w3.org/2000/svg"><g id="Mute"><path d="m4 12v8a1 1 0 0 0 1 1 1 1 0 0 1 0 2 3 3 0 0 1 -3-3v-8a3 3 0 0 1 3-3 1 1 0 0 1 0 2 1 1 0 0 0 -1 1zm15-3a1 1 0 0 0 -1 1v16.59a1 1 0 0 1 -.59.91 1 1 0 0 1 -1.05-.14l-6.69-6.1a1 1 0 0 0 -1.34 1.48l6.67 6.11a3 3 0 0 0 2 .75 3 3 0 0 0 3-3v-16.6a1 1 0 0 0 -1-1zm-.76-6.32a3 3 0 0 0 -3.24.48l-6.67 6.1a1 1 0 0 0 .67 1.74 1 1 0 0 0 .67-.26l6.67-6.08a1 1 0 0 1 1.07-.16 1 1 0 0 1 .59.91 1 1 0 0 0 2 0 3 3 0 0 0 -1.76-2.73zm9.17 13.32 2.13-2.12a1 1 0 0 0 -1.42-1.42l-2.12 2.13-2.12-2.13a1 1 0 0 0 -1.42 1.42l2.13 2.12-2.13 2.12a1 1 0 0 0 0 1.42 1 1 0 0 0 .71.29 1 1 0 0 0 .71-.29l2.12-2.13 2.12 2.13a1 1 0 0 0 .71.29 1 1 0 0 0 .71-.29 1 1 0 0 0 0-1.42z" fill="#000000" style="fill: rgb(232, 216, 176);"></path></g></svg>