<svg width="17" height="17" viewBox="0 0 17 17" fill="none" xmlns="http://www.w3.org/2000/svg">
<path fill-rule="evenodd" clip-rule="evenodd" d="M12.7449 16.8283C11.1457 16.4277 7.87174 15.2981 4.90367 12.33C1.93562 9.36198 0.806034 6.08803 0.405348 4.4888C0.175084 3.56974 0.589735 2.68288 1.29282 2.18067L3.13602 0.864095C4.21449 0.0937639 5.71478 0.355164 6.46917 1.44485L7.62957 3.121C8.12214 3.8325 7.95225 4.80768 7.24806 5.31067L6.32279 5.97158C6.46283 6.50723 6.89838 7.60725 8.26243 8.97129C9.62647 10.3353 10.7265 10.7708 11.2621 10.9109L11.923 9.98558C12.426 9.28147 13.4012 9.1115 14.1127 9.60407L15.7889 10.7645C16.8785 11.519 17.1399 13.0192 16.3696 14.0977L15.053 15.9409C14.5508 16.644 13.664 17.0586 12.7449 16.8283ZM6.02325 11.2104C8.72238 13.9096 11.701 14.9345 13.1297 15.2925C13.3385 15.3448 13.591 15.2636 13.7646 15.0206L15.0812 13.1773C15.3379 12.8179 15.2509 12.3178 14.8876 12.0663L13.2115 10.9059L12.5022 11.8989C12.2124 12.3047 11.6763 12.6229 11.0522 12.4883C10.2732 12.3202 8.83314 11.7812 7.14285 10.0909C5.45256 8.40058 4.91351 6.96054 4.74542 6.18154C4.61076 5.55739 4.92904 5.02136 5.33483 4.73151L6.32778 4.02225L5.16737 2.3461C4.9159 1.98286 4.4158 1.89573 4.05632 2.15251L2.21312 3.46908C1.97005 3.6427 1.88889 3.89517 1.94121 4.10399C2.29919 5.53275 3.32416 8.51133 6.02325 11.2104Z" fill="url(#paint0_linear_149_231)"/>
<defs>
<linearGradient id="paint0_linear_149_231" x1="8.57684" y1="0.421509" x2="8.57684" y2="16.8922" gradientUnits="userSpaceOnUse">
<stop stop-color="#AEA9A9"/>
<stop offset="1" stop-color="#DDDDDD"/>
</linearGradient>
</defs>
</svg>
