<svg width="24" height="25" viewBox="0 0 24 25" fill="none" xmlns="http://www.w3.org/2000/svg">
<path id="Vector" d="M0.122925 16.7727V8.1348C0.122925 7.84844 0.236682 7.5738 0.439172 7.37131C0.641661 7.16882 0.916296 7.05506 1.20266 7.05506C1.48902 7.05506 1.76366 7.16882 1.96615 7.37131C2.16864 7.5738 2.28239 7.84844 2.28239 8.1348V16.7727C2.28239 17.059 2.16864 17.3337 1.96615 17.5362C1.76366 17.7386 1.48902 17.8524 1.20266 17.8524C0.916296 17.8524 0.641661 17.7386 0.439172 17.5362C0.236682 17.3337 0.122925 17.059 0.122925 16.7727ZM7.68106 21.0916V3.81586C7.68106 3.5295 7.56731 3.25486 7.36482 3.05238C7.16233 2.84989 6.88769 2.73613 6.60133 2.73613C6.31497 2.73613 6.04033 2.84989 5.83784 3.05238C5.63535 3.25486 5.5216 3.5295 5.5216 3.81586V21.0916C5.5216 21.378 5.63535 21.6526 5.83784 21.8551C6.04033 22.0576 6.31497 22.1713 6.60133 22.1713C6.88769 22.1713 7.16233 22.0576 7.36482 21.8551C7.56731 21.6526 7.68106 21.378 7.68106 21.0916ZM13.0797 23.2511V1.65639C13.0797 1.37003 12.966 1.0954 12.7635 0.892907C12.561 0.690417 12.2864 0.57666 12 0.57666C11.7136 0.57666 11.439 0.690417 11.2365 0.892907C11.034 1.0954 10.9203 1.37003 10.9203 1.65639V23.2511C10.9203 23.5374 11.034 23.8121 11.2365 24.0146C11.439 24.2171 11.7136 24.3308 12 24.3308C12.2864 24.3308 12.561 24.2171 12.7635 24.0146C12.966 23.8121 13.0797 23.5374 13.0797 23.2511ZM18.4784 21.0916V3.81586C18.4784 3.5295 18.3646 3.25486 18.1622 3.05238C17.9597 2.84989 17.685 2.73613 17.3987 2.73613C17.1123 2.73613 16.8377 2.84989 16.6352 3.05238C16.4327 3.25486 16.3189 3.5295 16.3189 3.81586V21.0916C16.3189 21.378 16.4327 21.6526 16.6352 21.8551C16.8377 22.0576 17.1123 22.1713 17.3987 22.1713C17.685 22.1713 17.9597 22.0576 18.1622 21.8551C18.3646 21.6526 18.4784 21.378 18.4784 21.0916ZM22.7973 7.05506C22.511 7.05506 22.2363 7.16882 22.0339 7.37131C21.8314 7.5738 21.7176 7.84844 21.7176 8.1348V16.7727C21.7176 17.059 21.8314 17.3337 22.0339 17.5362C22.2363 17.7386 22.511 17.8524 22.7973 17.8524C23.0837 17.8524 23.3583 17.7386 23.5608 17.5362C23.7633 17.3337 23.8771 17.059 23.8771 16.7727V8.1348C23.8771 7.84844 23.7633 7.5738 23.5608 7.37131C23.3583 7.16882 23.0837 7.05506 22.7973 7.05506Z" fill="#E8D8B0" fill-opacity="0.72"/>
</svg>
