<svg width="19" height="17" viewBox="0 0 19 17" fill="none" xmlns="http://www.w3.org/2000/svg">
<path id="Vector" fill-rule="evenodd" clip-rule="evenodd" d="M16.2215 1.3227C16.5225 1.25189 16.7324 1.18228 16.9043 1.10917C17.1453 1.0067 17.345 0.883951 17.6607 0.677221C17.9259 0.503476 18.2658 0.488346 18.5456 0.637824C18.8255 0.787302 19 1.07724 19 1.39265C19 2.31922 18.8837 3.07865 18.6144 3.74698C18.3878 4.30914 18.0694 4.76573 17.6887 5.18131C17.5279 8.06417 16.6871 10.3281 15.4018 12.0433C14.0695 13.821 12.297 14.9595 10.4285 15.597C8.5655 16.2327 6.59704 16.3747 4.83356 16.1594C3.08165 15.9457 1.46223 15.37 0.333472 14.4986C0.02436 14.26 -0.0842997 13.8448 0.0687335 13.487C0.221769 13.1292 0.598184 12.9184 0.985852 12.9734C2.09646 13.1309 3.16554 12.8802 4.04463 12.5219C3.87158 12.4285 3.70841 12.3273 3.55675 12.2231C2.7557 11.6727 2.1094 10.9255 1.81851 10.348C1.69812 10.1091 1.69688 9.82802 1.81515 9.58809C1.87615 9.46423 1.96537 9.3587 2.07368 9.27821C0.904092 8.32013 0.431874 6.99498 0.431874 6.10724C0.431874 5.84327 0.554406 5.59403 0.764028 5.43159C0.85217 5.36328 0.951574 5.31353 1.05636 5.28356C0.968838 5.02919 0.900922 4.7722 0.849156 4.5234C0.619628 3.4203 0.640001 2.17526 0.889479 1.18476C0.974849 0.845806 1.25893 0.592204 1.60754 0.543738C1.95614 0.495281 2.29949 0.661663 2.47539 0.964296C3.40597 2.56527 5.12241 3.54385 6.71988 4.12353C7.47093 4.39607 8.1665 4.56974 8.68787 4.67651C8.8004 3.63022 9.09473 2.76738 9.5465 2.08206C10.1425 1.17789 10.9737 0.642942 11.8664 0.40441C13.406 -0.00695923 15.1143 0.461705 16.2215 1.3227ZM8.41911 6.37176C7.82743 6.25383 7.01425 6.05572 6.12678 5.73369C4.95464 5.30836 3.59354 4.64513 2.45341 3.61781C2.47381 3.80685 2.50278 3.9943 2.54073 4.17666C2.73181 5.095 3.08686 5.60932 3.40901 5.76918C3.80301 5.96472 3.9856 6.42323 3.83276 6.83332C3.62583 7.38852 3.08159 7.43404 2.58709 7.31138C2.98481 7.90318 3.69967 8.49328 4.89202 8.69052C5.30327 8.75858 5.60684 9.10849 5.61356 9.52226C5.62029 9.93603 5.32824 10.2955 4.91942 10.3766L4.16766 10.5259C4.28266 10.625 4.40719 10.7223 4.53993 10.8135C5.14181 11.2271 5.74613 11.4055 6.26785 11.2761C6.6586 11.1791 7.06499 11.3631 7.24736 11.7196C7.42971 12.076 7.33962 12.5103 7.0302 12.7661C6.47409 13.2256 5.82463 13.5943 5.17372 13.9002C4.86815 14.0439 4.52666 14.1857 4.15578 14.3105C4.44102 14.3709 4.73784 14.4205 5.04436 14.4579C6.57349 14.6445 8.27549 14.5187 9.86699 13.9757C11.4531 13.4346 12.9191 12.4836 14.0159 11.0201C15.1111 9.5586 15.8754 7.53605 15.9779 4.78977C15.9859 4.57355 16.0761 4.36835 16.2302 4.21536C16.6185 3.82992 16.9395 3.38813 17.0973 2.86227C16.8211 2.94776 16.51 3.02175 16.1395 3.09206C15.8584 3.14539 15.569 3.05707 15.3666 2.85624C14.7064 2.20089 13.4005 1.76992 12.3154 2.05986C11.8047 2.19632 11.3405 2.49173 10.9919 3.02064C10.636 3.56066 10.3637 4.40192 10.3637 5.67867C10.3637 5.92124 10.2601 6.15245 10.0788 6.31498C9.64866 6.70028 8.92485 6.47255 8.41911 6.37176Z" fill="url(#paint0_linear_80_41)"/>
<defs>
<linearGradient id="paint0_linear_80_41" x1="9.5" y1="0.253265" x2="9.5" y2="16.2533" gradientUnits="userSpaceOnUse">
<stop stop-color="#E8D8B0"/>
<stop offset="1" stop-color="#E8D8B0" stop-opacity="0.72"/>
</linearGradient>
</defs>
</svg>
