<svg width="17" height="18" viewBox="0 0 17 18" fill="none" xmlns="http://www.w3.org/2000/svg">
<g clip-path="url(#clip0_149_279)">
<path fill-rule="evenodd" clip-rule="evenodd" d="M8.5 8.12561C7.61972 8.12561 6.90625 7.41214 6.90625 6.53186C6.90625 5.65158 7.61972 4.93811 8.5 4.93811C9.38028 4.93811 10.0938 5.65158 10.0938 6.53186C10.0938 7.41214 9.38028 8.12561 8.5 8.12561ZM8.5 3.87561C7.03322 3.87561 5.84375 5.06455 5.84375 6.53186C5.84375 7.99917 7.03322 9.18811 8.5 9.18811C9.96678 9.18811 11.1562 7.99917 11.1562 6.53186C11.1562 5.06455 9.96678 3.87561 8.5 3.87561ZM8.5 15.5631C7.61653 15.5679 3.1875 8.75302 3.1875 6.53186C3.1875 3.5983 5.56591 1.21936 8.5 1.21936C11.4341 1.21936 13.8125 3.5983 13.8125 6.53186C13.8125 8.72327 9.36966 15.5679 8.5 15.5631ZM8.5 0.15686C4.97941 0.15686 2.125 3.01127 2.125 6.53186C2.125 9.19767 7.44016 17.1627 8.5 17.1569C9.54338 17.1627 14.875 9.16155 14.875 6.53186C14.875 3.01127 12.0206 0.15686 8.5 0.15686Z" fill="url(#paint0_linear_149_279)"/>
</g>
<defs>
<linearGradient id="paint0_linear_149_279" x1="8.5" y1="0.15686" x2="8.5" y2="17.1569" gradientUnits="userSpaceOnUse">
<stop stop-color="#AEA9A9"/>
<stop offset="1" stop-color="#DDDDDD"/>
</linearGradient>
<clipPath id="clip0_149_279">
<rect width="17" height="17" fill="white" transform="translate(0 0.15686)"/>
</clipPath>
</defs>
</svg>
